<svg width="678" height="678" viewBox="0 0 226 226" fill="none" xmlns="http://www.w3.org/2000/svg">
    <path d="M112.647 0.646401C112.842 0.451139 113.158 0.451139 113.354 0.646401L116.536 3.82838C116.731 4.02365 116.731 4.34023 116.536 4.53549C116.34 4.73075 116.024 4.73075 115.829 4.53549L113 1.70706L110.172 4.53549C109.976 4.73075 109.66 4.73075 109.465 4.53549C109.269 4.34022 109.269 4.02364 109.465 3.82838L112.647 0.646401ZM113 225.998L112.5 225.998L112.5 0.999954L113 0.999954L113.5 0.999954L113.5 225.998L113 225.998Z" fill="#64C850" />
    <path d="M225.853 112.601C226.048 112.797 226.048 113.113 225.853 113.308L222.671 116.49C222.475 116.686 222.159 116.686 221.963 116.49C221.768 116.295 221.768 115.979 221.963 115.783L224.792 112.955L221.963 110.126C221.768 109.931 221.768 109.615 221.963 109.419C222.159 109.224 222.475 109.224 222.671 109.419L225.853 112.601ZM0.500854 112.955L0.500855 112.455L225.499 112.455L225.499 112.955L225.499 113.455L0.500854 113.455L0.500854 112.955Z" fill="#FF4E00" />
    <circle cx="113" cy="113" r="3" fill="#FFBB40" />
    <text fill="#FF4E00" xml:space="preserve" style="white-space: pre" font-family="'Fira Code', monospace" font-size="6" font-weight="600" letter-spacing="0em">
        <tspan x="194.207" y="124.004">x-axis&#10;</tspan>
        <tspan x="185.213" y="132.004">translation</tspan>
    </text>
    <text fill="#0B95DA" xml:space="preserve" style="white-space: pre" font-family="'Fira Code', monospace" font-size="6" font-weight="600" letter-spacing="0em">
    <tspan x="79.707" y="124.004">z-axis&#10;</tspan>
        <tspan x="76.1094" y="132.004">rotation</tspan>
    </text>
    <text fill="#64C850" xml:space="preserve" style="white-space: pre" font-family="'Fira Code', monospace" font-size="6" font-weight="600" letter-spacing="0em">
        <tspan x="77.207" y="7.004">y-axis&#10;</tspan>
        <tspan x="68.2129" y="15.004">translation</tspan>
    </text>
    <path d="M115.436 102.332C115.247 102.216 115.011 102.385 115.061 102.601L116.309 107.984C116.349 108.158 116.553 108.234 116.698 108.13L120.15 105.652C120.295 105.548 120.288 105.33 120.136 105.236L115.436 102.332Z" fill="#0B95DA" />
    <path d="M116.77 105.011C125.789 113.017 118.824 122.33 111.47 120.857C104.116 119.384 102.158 108.793 110.494 105.364" stroke="#0B95DA" />
</svg>