<svg width="720" height="675" viewBox="0 0 240 225" fill="none" xmlns="http://www.w3.org/2000/svg">
    <path d="M173.251 135.058C173.042 134.98 172.844 135.193 172.936 135.395L175.216 140.427C175.29 140.59 175.505 140.625 175.627 140.495L178.526 137.387C178.647 137.256 178.597 137.044 178.43 136.982L173.251 135.058Z" fill="#B33700" />
    <path d="M175.086 137.422C185.837 144.234 179.337 156.734 172.836 155.734C169.995 155.297 167.918 153.427 166.814 151" stroke="#B33700" />
    <path d="M220.158 172.474C220.42 172.387 220.562 172.104 220.474 171.842L219.051 167.573C218.964 167.311 218.681 167.169 218.419 167.257C218.157 167.344 218.015 167.627 218.103 167.889L219.368 171.684L215.573 172.949C215.311 173.036 215.169 173.319 215.257 173.581C215.344 173.843 215.627 173.985 215.889 173.897L220.158 172.474ZM19.9999 72L19.7763 72.4472L219.776 172.447L220 172L220.224 171.553L20.2236 71.5528L19.9999 72Z" fill="#FF4E00" />
    <path d="M167.837 140.734C165.585 143.829 165.393 147.876 166.814 151" stroke="#B33700" />
    <path d="M60.8367 140.734C56.8366 146.234 59.3359 154.734 65.8363 155.734" stroke="#086391" />
    <path d="M19.8419 172.474C19.5799 172.387 19.4383 172.104 19.5256 171.842L20.9487 167.573C21.036 167.311 21.3191 167.169 21.5811 167.257C21.8431 167.344 21.9847 167.627 21.8973 167.889L20.6324 171.684L24.4272 172.949C24.6891 173.036 24.8307 173.319 24.7434 173.581C24.6561 173.843 24.3729 173.985 24.1109 173.897L19.8419 172.474ZM20 172L19.7764 171.553L219.776 71.5528L220 72L220.224 72.4472L20.2236 172.447L20 172Z" fill="#0B95DA" />
    <path d="M68.0859 137.422C78.8368 144.234 72.3366 156.734 65.8363 155.734" stroke="#086391" />
    <path d="M66.2636 135.037C66.0553 134.96 65.8571 135.172 65.9489 135.375L68.2295 140.407C68.3032 140.57 68.5184 140.605 68.6401 140.474L71.5386 137.366C71.6602 137.236 71.61 137.024 71.4428 136.961L66.2636 135.037Z" fill="#086391" />
    <path d="M125.365 58.6091C122.269 56.3578 118.223 56.1656 115.099 57.5869" stroke="#3A882B" />
    <path d="M119.647 7.64646C119.842 7.4512 120.158 7.4512 120.354 7.64646L123.536 10.8284C123.731 11.0237 123.731 11.3403 123.536 11.5356C123.34 11.7308 123.024 11.7308 122.828 11.5356L120 8.70712L117.172 11.5355C116.976 11.7308 116.66 11.7308 116.465 11.5355C116.269 11.3403 116.269 11.0237 116.465 10.8284L119.647 7.64646ZM120 225L119.5 225L119.5 8.00002L120 8.00002L120.5 8.00002L120.5 225L120 225Z" fill="#64C850" />
    <path d="M128.677 65.8581C121.866 76.6093 109.366 70.1099 110.365 63.6095C110.802 60.7678 112.672 58.6907 115.099 57.5868" stroke="#3A882B" />
    <path d="M131.042 64.0229C131.119 63.8146 130.906 63.6164 130.704 63.7081L125.672 65.9891C125.509 66.0627 125.474 66.278 125.605 66.3996L128.713 69.2979C128.844 69.4196 129.056 69.3694 129.118 69.2021L131.042 64.0229Z" fill="#3A882B" />
    <circle cx="120" cy="122" r="3" fill="#FFBB40" />
    <text fill="#FF4E00" xml:space="preserve" style="white-space: pre" font-family="'Fira Code', monospace" font-size="6" font-weight="600" letter-spacing="0em">
        <tspan x="209.207" y="183.004">x-axis&#10;</tspan>
        <tspan x="200.213" y="191.004">translation</tspan>
    </text>
    <text fill="#B33700" xml:space="preserve" style="white-space: pre" font-family="'Fira Code', monospace" font-size="6" font-weight="600" letter-spacing="0em">
        <tspan x="164.707" y="164.004">x-axis&#10;</tspan>
        <tspan x="161.109" y="172.004">rotation</tspan>
    </text>
    <text fill="#086391" xml:space="preserve" style="white-space: pre" font-family="'Fira Code', monospace" font-size="6" font-weight="600" letter-spacing="0em">
        <tspan x="54.707" y="164.004">z-axis&#10;</tspan>
        <tspan x="51.1094" y="172.004">rotation</tspan>
    </text>
    <text fill="#3A882B" xml:space="preserve" style="white-space: pre" font-family="'Fira Code', monospace" font-size="6" font-weight="600" letter-spacing="0em">
        <tspan x="81.707" y="63.004">y-axis&#10;</tspan>
        <tspan x="78.1094" y="71.004">rotation</tspan>
    </text>
    <text fill="#0B95DA" xml:space="preserve" style="white-space: pre" font-family="'Fira Code', monospace" font-size="6" font-weight="600" letter-spacing="0em">
        <tspan x="9.20703" y="183.004">z-axis&#10;</tspan>
        <tspan x="0.212891" y="191.004">translation</tspan>
    </text>
    <text fill="#64C850" xml:space="preserve" style="white-space: pre" font-family="'Fira Code', monospace" font-size="6" font-weight="600" letter-spacing="0em">
        <tspan x="81.207" y="6.004">y-axis&#10;</tspan>
        <tspan x="72.2129" y="14.004">translation</tspan>
    </text>
</svg>