<svg width="738" height="375" viewBox="0 0 246 125" fill="none" xmlns="http://www.w3.org/2000/svg">
    <rect x="21.3727" y="44.6644" width="79" height="49" rx="1.5" transform="rotate(25 21.3727 44.6644)" fill="#5064C8" stroke="black" />
    <path d="M55.7202 65.7388C55.6257 65.4794 55.3388 65.3456 55.0793 65.44L50.8507 66.9791C50.5912 67.0735 50.4574 67.3605 50.5519 67.62C50.6463 67.8794 50.9332 68.0132 51.1927 67.9188L54.9515 66.5507L56.3196 70.3095C56.414 70.569 56.701 70.7028 56.9604 70.6083C57.2199 70.5139 57.3537 70.227 57.2593 69.9675L55.7202 65.7388ZM46.798 84.036L47.2511 84.2473L55.7035 66.1212L55.2503 65.9099L54.7972 65.6985L46.3448 83.8247L46.798 84.036Z" fill="#64C850" />
    <path d="M69.6267 95.0713C69.8862 94.9769 70.02 94.6899 69.9255 94.4305L68.3864 90.2018C68.292 89.9424 68.0051 89.8086 67.7456 89.903C67.4861 89.9975 67.3523 90.2844 67.4467 90.5439L68.8148 94.3026L65.056 95.6707C64.7966 95.7652 64.6628 96.0521 64.7572 96.3116C64.8517 96.5711 65.1386 96.7049 65.3981 96.6104L69.6267 95.0713ZM46.798 84.036L46.5867 84.4892L69.2444 95.0546L69.4557 94.6015L69.667 94.1483L47.0093 83.5829L46.798 84.036Z" fill="#FF4E00" />
    <circle cx="46.798" cy="84.036" r="2.5" transform="rotate(25 46.798 84.036)" fill="#FFBB40" />
    <path d="M106.646 25.6464C106.451 25.8417 106.451 26.1583 106.646 26.3536L109.828 29.5355C110.024 29.7308 110.34 29.7308 110.536 29.5355C110.731 29.3403 110.731 29.0237 110.536 28.8284L107.707 26L110.536 23.1716C110.731 22.9763 110.731 22.6597 110.536 22.4645C110.34 22.2692 110.024 22.2692 109.828 22.4645L106.646 25.6464ZM127 26V25.5L107 25.5V26V26.5L127 26.5V26Z" fill="#64C850" />
    <path d="M127.354 0.646447C127.158 0.451184 126.842 0.451184 126.646 0.646447L123.464 3.82843C123.269 4.02369 123.269 4.34027 123.464 4.53553C123.66 4.7308 123.976 4.7308 124.172 4.53553L127 1.70711L129.828 4.53553C130.024 4.7308 130.34 4.7308 130.536 4.53553C130.731 4.34027 130.731 4.02369 130.536 3.82843L127.354 0.646447ZM127 26H127.5V1H127H126.5V26H127Z" fill="#FF4E00" />
    <circle cx="127" cy="26" r="4" fill="#FFBB40" />
    <text fill="#FFBB40" xml:space="preserve" style="white-space: pre" font-family="'Fira Code', monospace" font-size="6" font-weight="600" letter-spacing="0em">
        <tspan x="134.207" y="27.51">anchor</tspan>
    </text>
    <text fill="white" xml:space="preserve" style="white-space: pre" font-family="'Fira Code', monospace" font-size="6" font-weight="600" letter-spacing="0em">
        <tspan x="36.0059" y="95.51">body1</tspan>
    </text>
    <path d="M245.117 124.5H167.207L215.9 75.8057L245.117 124.5Z" fill="#5064C8" stroke="black" />
    <path d="M208.354 88.6464C208.158 88.4512 207.842 88.4512 207.646 88.6464L204.464 91.8284C204.269 92.0237 204.269 92.3402 204.464 92.5355C204.66 92.7308 204.976 92.7308 205.172 92.5355L208 89.7071L210.828 92.5355C211.024 92.7308 211.34 92.7308 211.536 92.5355C211.731 92.3402 211.731 92.0237 211.536 91.8284L208.354 88.6464ZM208 109H208.5V89H208H207.5V109H208Z" fill="#64C850" />
    <path d="M233.354 109.354C233.549 109.158 233.549 108.842 233.354 108.646L230.172 105.464C229.976 105.269 229.66 105.269 229.464 105.464C229.269 105.66 229.269 105.976 229.464 106.172L232.293 109L229.464 111.828C229.269 112.024 229.269 112.34 229.464 112.536C229.66 112.731 229.976 112.731 230.172 112.536L233.354 109.354ZM208 109V109.5H233V109V108.5H208V109Z" fill="#FF4E00" />
    <circle cx="208" cy="109" r="2.5" fill="#FFBB40" />
    <text fill="white" xml:space="preserve" style="white-space: pre" font-family="'Fira Code', monospace" font-size="6" font-weight="600" letter-spacing="0em">
        <tspan x="202.006" y="118.51">body2</tspan>
    </text>
    <line x1="46.7065" y1="83.5952" x2="126.707" y2="25.5952" stroke="#FFBB40" stroke-dasharray="4 4" />
    <line x1="207.642" y1="109.349" x2="126.642" y2="26.3492" stroke="#FFBB40" stroke-dasharray="4 4" />
    <text fill="#E19664" xml:space="preserve" style="white-space: pre" font-family="'Fira Code', monospace" font-size="6" font-weight="600" letter-spacing="0em">
        <tspan x="104.006" y="16.51">basis</tspan>
    </text>
</svg>