<svg width="400" height="462" viewBox="0 0 132 154" fill="none" xmlns="http://www.w3.org/2000/svg">
    <path d="M87.5 125.5C106 127 127.5 131 131 138C131.894 139.789 128.5 143.5 118 146.5L66 138L87.5 125.5Z" fill="#DA0B84" fill-opacity="0.2" stroke="#981B78" stroke-width="0.5" />
    <path d="M66 4L36 126L66 138V4Z" fill="#0B95DA" fill-opacity="0.2" />
    <path d="M66 51.5C61 53 57.5 52 55 48.5" stroke="#0B95DA" stroke-width="0.5" />
    <path d="M66 3.99999L36 126" stroke="#3D668F" stroke-width="0.5" stroke-linecap="round" />
    <path d="M65.5 138L36 126" stroke="#0B95DA" stroke-linecap="round" />
    <path d="M131 138L66.0059 138" stroke="#981B78" stroke-width="0.5" stroke-linecap="round" stroke-dasharray="2.5 2.5" />
    <path d="M3.77441 134.695C4.65563 134.076 5.73842 133.464 7.0166 132.865L6.59277 131.961C5.27609 132.578 4.14043 133.219 3.2002 133.879L3.77441 134.695Z" fill="#AF644B" />
    <path d="M128.811 133.879C127.87 133.219 126.735 132.578 125.418 131.961L124.995 132.865C126.273 133.464 127.356 134.076 128.237 134.695L128.811 133.879Z" fill="#AF644B" />
    <path d="M10.5254 131.434C11.6545 131.028 12.8723 130.634 14.1729 130.254L13.8926 129.295C12.5749 129.68 11.338 130.08 10.1875 130.493L10.5254 131.434Z" fill="#AF644B" />
    <path d="M121.823 130.493C120.673 130.08 119.436 129.68 118.118 129.295L117.839 130.254C119.139 130.634 120.357 131.028 121.486 131.434L121.823 130.493Z" fill="#AF644B" />
    <path d="M17.8965 129.261C19.1012 128.966 20.3591 128.682 21.667 128.41L21.4639 127.431C20.1452 127.705 18.8761 127.993 17.6592 128.29L17.7549 128.684L17.8965 129.261Z" fill="#AF644B" />
    <path d="M114.352 128.29C113.135 127.993 111.865 127.705 110.547 127.431L110.345 128.41C111.653 128.682 112.91 128.966 114.115 129.261L114.257 128.684L114.352 128.29Z" fill="#AF644B" />
    <path d="M29.208 126.552L29.1318 126.058L29.1309 126.057C27.8123 126.259 26.5278 126.473 25.2793 126.695L25.4551 127.68C26.6953 127.458 27.9721 127.247 29.2832 127.046L29.208 126.552Z" fill="#AF644B" />
    <path d="M106.731 126.695C105.483 126.473 104.198 126.259 102.88 126.057L102.804 126.552L102.729 127.046C104.04 127.247 105.316 127.458 106.557 127.68L106.731 126.695Z" fill="#AF644B" />
    <path d="M33.1084 126.502C34.3657 126.336 35.65 126.18 36.959 126.033L36.8477 125.04C35.5326 125.187 34.2423 125.344 32.9785 125.511L33.1084 126.502Z" fill="#AF644B" />
    <path d="M99.0322 125.511C97.7684 125.344 96.4781 125.187 95.1631 125.04L95.0527 126.033C96.3617 126.18 97.646 126.336 98.9033 126.502L99.0127 125.672L99.0322 125.511Z" fill="#AF644B" />
    <path d="M40.8174 125.636C42.0843 125.516 43.3719 125.405 44.6777 125.304L44.5996 124.307C43.2885 124.409 41.996 124.521 40.7236 124.641L40.8174 125.636Z" fill="#AF644B" />
    <path d="M91.2871 124.641C90.0147 124.521 88.7223 124.409 87.4111 124.307L87.334 125.304C88.6398 125.405 89.9274 125.516 91.1943 125.636L91.2871 124.641Z" fill="#AF644B" />
    <path d="M52.4258 124.819L52.4023 124.319L52.3779 123.82C51.0656 123.883 49.7677 123.955 48.4854 124.035L48.5479 125.032C49.8252 124.952 51.1183 124.882 52.4258 124.819Z" fill="#AF644B" />
    <path d="M83.5254 124.035C82.243 123.955 80.9451 123.883 79.6328 123.82L79.5859 124.819C80.8934 124.882 82.1865 124.952 83.4639 125.032L83.5254 124.035Z" fill="#AF644B" />
    <path d="M56.3027 124.661C57.5832 124.618 58.8762 124.584 60.1797 124.558L60.1602 123.559C58.852 123.585 57.5547 123.619 56.2695 123.662L56.3027 124.661Z" fill="#AF644B" />
    <path d="M75.7412 123.662C74.456 123.619 73.1588 123.585 71.8506 123.559L71.832 124.558C73.1355 124.584 74.4285 124.618 75.709 124.661L75.7412 123.662Z" fill="#AF644B" />
    <path d="M67.957 123.507C67.3089 123.503 66.6585 123.5 66.0059 123.5C65.3529 123.5 64.7021 123.503 64.0537 123.507L64.0557 123.884L64.0605 124.507C64.7067 124.503 65.3552 124.5 66.0059 124.5C66.6566 124.5 67.305 124.503 67.9512 124.507L67.9561 123.884L67.957 123.507Z" fill="#AF644B" />
    <path d="M130 136C130.769 136.854 131.006 137.783 131.006 138.5C131.006 139.217 130.69 140 129.922 140.854C129.148 141.713 127.959 142.591 126.346 143.458C123.12 145.191 118.387 146.783 112.453 148.132C100.601 150.825 84.1794 152.5 66.0058 152.5V153.5C102.457 153.5 132.006 146.784 132.006 138.5C132.121 137.7 131.387 136.5 131.006 136H130Z" fill="#E19664" />
    <path d="M1.00581 138.5C1.00581 137.783 1.32123 137 2.0898 136.146L1.19123 135.655C0.499414 136.526 0.186184 137.311 0.0650822 137.858C0.025702 138.071 0.00581423 138.285 0.00581423 138.5C0.00581423 146.784 29.555 153.5 66.0058 153.5V152.5C47.8323 152.5 31.4101 150.825 19.5585 148.132C13.6248 146.783 8.89144 145.191 5.66597 143.458C4.05252 142.591 2.86385 141.713 2.0898 140.854C1.32123 140 1.00581 139.217 1.00581 138.5Z" fill="#E19664" />
    <path d="M66.006 4.5L66.0059 138.5" stroke="#DA0B84" />
    <path d="M131.506 138L66.0059 4L0.505859 138" stroke="#E19664" />
    <text fill="#64C850" xml:space="preserve" style="white-space: pre" font-family="'Fira Code', monospace" font-size="6" font-weight="600" letter-spacing="0em">
        <tspan x="107" y="142.51">min</tspan>
    </text>
    <text fill="#FF4E00" xml:space="preserve" style="white-space: pre" font-family="'Fira Code', monospace" font-size="6" font-weight="600" letter-spacing="0em">
        <tspan x="90" y="132.51">max</tspan>
    </text>
    <text fill="#DA0B84" xml:space="preserve" style="white-space: pre" font-family="'Fira Code', monospace" font-size="6" font-weight="600" letter-spacing="0em">
        <tspan x="68" y="103.51">twist_axis</tspan>
    </text>
    <text fill="#0B95DA" xml:space="preserve" style="white-space: pre" font-family="'Fira Code', monospace" font-size="6" font-weight="600" letter-spacing="0em">
        <tspan x="46" y="92.51">swing</tspan>
    </text>
    <circle cx="66.2028" cy="4.95316" r="4" fill="#FFBB40" />
    <text fill="#FFBB40" xml:space="preserve" style="white-space: pre" font-family="'Fira Code', monospace" font-size="6" font-weight="600" letter-spacing="0em">
        <tspan x="74.207" y="5.51">anchor</tspan>
    </text>
    <path d="M129 137.5C125 131.5 101 127.5 89.4999 126.9" stroke="#FF4E00" stroke-width="0.75" />
    <path d="M87.5674 126.651C87.397 126.711 87.3866 126.948 87.5511 127.022L89.28 127.803C89.409 127.861 89.556 127.771 89.5622 127.63L89.6239 126.222C89.6301 126.081 89.4916 125.978 89.358 126.024L87.5674 126.651Z" fill="#FF4E00" />
    <path d="M129 138.5C128.5 141.5 123 143.5 118.5 144.6" stroke="#64C850" stroke-width="0.75" />
    <path d="M116.927 145.474C116.746 145.472 116.66 145.251 116.793 145.128L118.181 143.835C118.284 143.738 118.453 143.777 118.504 143.909L119.012 145.223C119.064 145.355 118.965 145.497 118.824 145.495L116.927 145.474Z" fill="#64C850" />
</svg>