<svg width="490" height="181" viewBox="0 0 490 181" fill="none" xmlns="http://www.w3.org/2000/svg">
    <path d="M475.067 162.071C473.266 162.071 471.722 161.846 470.436 161.395C469.149 160.945 468.104 160.398 467.3 159.755C466.496 159.112 465.885 158.469 465.467 157.826C465.081 157.182 464.872 156.668 464.84 156.282C464.807 155.928 464.92 155.655 465.177 155.462C465.435 155.269 465.692 155.172 465.949 155.172H468.072C468.265 155.172 468.409 155.204 468.506 155.269C468.635 155.301 468.795 155.43 468.988 155.655C469.406 156.105 469.873 156.555 470.387 157.005C470.902 157.456 471.529 157.826 472.269 158.115C473.04 158.404 473.989 158.549 475.115 158.549C476.755 158.549 478.106 158.244 479.167 157.633C480.228 156.989 480.759 156.057 480.759 154.835C480.759 154.031 480.534 153.387 480.084 152.905C479.665 152.423 478.894 151.988 477.768 151.603C476.675 151.217 475.163 150.815 473.233 150.397C471.304 149.946 469.776 149.4 468.651 148.756C467.525 148.081 466.721 147.293 466.239 146.393C465.756 145.46 465.515 144.415 465.515 143.257C465.515 142.067 465.869 140.925 466.576 139.832C467.284 138.706 468.313 137.79 469.664 137.082C471.047 136.375 472.767 136.021 474.825 136.021C476.498 136.021 477.929 136.23 479.119 136.648C480.309 137.066 481.29 137.597 482.061 138.24C482.833 138.851 483.412 139.462 483.798 140.073C484.184 140.684 484.393 141.199 484.425 141.617C484.457 141.938 484.361 142.212 484.136 142.437C483.911 142.63 483.653 142.726 483.364 142.726H481.338C481.113 142.726 480.92 142.678 480.759 142.582C480.63 142.485 480.502 142.373 480.373 142.244C480.051 141.826 479.666 141.408 479.215 140.99C478.797 140.572 478.234 140.234 477.527 139.977C476.851 139.687 475.951 139.542 474.825 139.542C473.217 139.542 472.011 139.88 471.207 140.556C470.403 141.231 470.001 142.083 470.001 143.112C470.001 143.723 470.178 144.27 470.532 144.752C470.886 145.235 471.561 145.669 472.558 146.055C473.555 146.441 475.034 146.859 476.996 147.309C479.119 147.727 480.791 148.29 482.013 148.998C483.235 149.705 484.104 150.525 484.618 151.458C485.133 152.39 485.39 153.468 485.39 154.69C485.39 156.041 484.988 157.279 484.184 158.404C483.412 159.53 482.254 160.431 480.711 161.106C479.199 161.749 477.318 162.071 475.067 162.071Z" fill="#6A8FB3"/>
    <path d="M425.294 162.071C423.011 162.071 421.033 161.637 419.361 160.768C417.721 159.868 416.45 158.597 415.55 156.957C414.649 155.285 414.167 153.291 414.103 150.975C414.07 150.493 414.054 149.85 414.054 149.046C414.054 148.242 414.07 147.599 414.103 147.116C414.167 144.801 414.649 142.823 415.55 141.183C416.45 139.51 417.721 138.24 419.361 137.372C421.033 136.471 423.011 136.021 425.294 136.021C427.16 136.021 428.752 136.278 430.07 136.793C431.421 137.307 432.53 137.967 433.399 138.771C434.267 139.575 434.91 140.443 435.328 141.376C435.779 142.308 436.02 143.193 436.052 144.029C436.084 144.35 435.988 144.608 435.762 144.801C435.537 144.994 435.264 145.09 434.942 145.09H432.627C432.305 145.09 432.064 145.026 431.903 144.897C431.742 144.736 431.582 144.479 431.421 144.125C430.842 142.549 430.054 141.44 429.057 140.797C428.06 140.154 426.822 139.832 425.343 139.832C423.413 139.832 421.837 140.427 420.615 141.617C419.425 142.807 418.782 144.72 418.685 147.357C418.653 148.515 418.653 149.641 418.685 150.734C418.782 153.404 419.425 155.333 420.615 156.523C421.837 157.681 423.413 158.26 425.343 158.26C426.822 158.26 428.06 157.938 429.057 157.295C430.054 156.652 430.842 155.542 431.421 153.966C431.582 153.613 431.742 153.371 431.903 153.243C432.064 153.082 432.305 153.002 432.627 153.002H434.942C435.264 153.002 435.537 153.098 435.762 153.291C435.988 153.484 436.084 153.741 436.052 154.063C436.02 154.738 435.875 155.43 435.618 156.137C435.36 156.845 434.942 157.568 434.364 158.308C433.817 159.015 433.125 159.659 432.289 160.238C431.453 160.784 430.44 161.235 429.25 161.588C428.092 161.91 426.774 162.071 425.294 162.071Z" fill="#6A8FB3"/>
    <path d="M379.894 161.588C379.572 161.588 379.299 161.492 379.073 161.299C378.88 161.074 378.784 160.8 378.784 160.479V137.613C378.784 137.291 378.88 137.034 379.073 136.841C379.299 136.616 379.572 136.503 379.894 136.503H382.209C382.531 136.503 382.788 136.616 382.981 136.841C383.174 137.034 383.27 137.291 383.27 137.613V160.479C383.27 160.8 383.174 161.074 382.981 161.299C382.788 161.492 382.531 161.588 382.209 161.588H379.894ZM379.508 131.824C379.186 131.824 378.913 131.728 378.688 131.535C378.495 131.309 378.398 131.036 378.398 130.714V128.11C378.398 127.788 378.495 127.531 378.688 127.338C378.913 127.113 379.186 127 379.508 127H382.547C382.868 127 383.126 127.113 383.319 127.338C383.544 127.531 383.656 127.788 383.656 128.11V130.714C383.656 131.036 383.544 131.309 383.319 131.535C383.126 131.728 382.868 131.824 382.547 131.824H379.508Z" fill="#6A8FB3"/>
    <path d="M338.273 162.071C336.473 162.071 334.929 161.846 333.642 161.395C332.356 160.945 331.311 160.398 330.507 159.755C329.703 159.112 329.092 158.469 328.674 157.826C328.288 157.182 328.079 156.668 328.047 156.282C328.014 155.928 328.127 155.655 328.384 155.462C328.642 155.269 328.899 155.172 329.156 155.172H331.279C331.472 155.172 331.616 155.204 331.713 155.269C331.841 155.301 332.002 155.43 332.195 155.655C332.613 156.105 333.08 156.555 333.594 157.005C334.109 157.456 334.736 157.826 335.476 158.115C336.247 158.404 337.196 158.549 338.322 158.549C339.962 158.549 341.313 158.244 342.374 157.633C343.435 156.989 343.966 156.057 343.966 154.835C343.966 154.031 343.741 153.387 343.29 152.905C342.872 152.423 342.101 151.988 340.975 151.603C339.881 151.217 338.37 150.815 336.44 150.397C334.511 149.946 332.983 149.4 331.858 148.756C330.732 148.081 329.928 147.293 329.446 146.393C328.963 145.46 328.722 144.415 328.722 143.257C328.722 142.067 329.076 140.925 329.783 139.832C330.491 138.706 331.52 137.79 332.871 137.082C334.253 136.375 335.974 136.021 338.032 136.021C339.705 136.021 341.136 136.23 342.326 136.648C343.516 137.066 344.496 137.597 345.268 138.24C346.04 138.851 346.619 139.462 347.005 140.073C347.391 140.684 347.6 141.199 347.632 141.617C347.664 141.938 347.568 142.212 347.343 142.437C347.118 142.63 346.86 142.726 346.571 142.726H344.545C344.32 142.726 344.127 142.678 343.966 142.582C343.837 142.485 343.709 142.373 343.58 142.244C343.258 141.826 342.872 141.408 342.422 140.99C342.004 140.572 341.441 140.234 340.734 139.977C340.058 139.687 339.158 139.542 338.032 139.542C336.424 139.542 335.218 139.88 334.414 140.556C333.61 141.231 333.208 142.083 333.208 143.112C333.208 143.723 333.385 144.27 333.739 144.752C334.093 145.235 334.768 145.669 335.765 146.055C336.762 146.441 338.241 146.859 340.203 147.309C342.326 147.727 343.998 148.29 345.22 148.998C346.442 149.705 347.31 150.525 347.825 151.458C348.34 152.39 348.597 153.468 348.597 154.69C348.597 156.041 348.195 157.279 347.391 158.404C346.619 159.53 345.461 160.431 343.918 161.106C342.406 161.749 340.525 162.071 338.273 162.071Z" fill="#6A8FB3"/>
    <path d="M283.561 170.754C283.304 170.754 283.079 170.657 282.886 170.464C282.693 170.272 282.597 170.046 282.597 169.789C282.597 169.66 282.613 169.532 282.645 169.403C282.677 169.275 282.741 169.114 282.838 168.921L286.552 160.093L277.338 138.336C277.178 137.951 277.097 137.677 277.097 137.516C277.097 137.227 277.194 136.986 277.387 136.793C277.58 136.6 277.821 136.503 278.11 136.503H280.474C280.796 136.503 281.053 136.584 281.246 136.745C281.439 136.905 281.568 137.098 281.632 137.323L288.964 154.883L296.49 137.323C296.586 137.098 296.715 136.905 296.876 136.745C297.069 136.584 297.342 136.503 297.696 136.503H299.963C300.253 136.503 300.494 136.6 300.687 136.793C300.88 136.986 300.976 137.211 300.976 137.468C300.976 137.629 300.896 137.918 300.735 138.336L287.035 169.934C286.938 170.159 286.794 170.352 286.601 170.513C286.44 170.674 286.183 170.754 285.829 170.754H283.561Z" fill="#6A8FB3"/>
    <path d="M227.084 161.588C226.763 161.588 226.489 161.492 226.264 161.299C226.071 161.074 225.975 160.8 225.975 160.479V128.447C225.975 128.126 226.071 127.868 226.264 127.675C226.489 127.45 226.763 127.338 227.084 127.338H229.496C229.85 127.338 230.123 127.45 230.316 127.675C230.509 127.868 230.606 128.126 230.606 128.447V139.687C231.474 138.594 232.535 137.709 233.79 137.034C235.044 136.359 236.636 136.021 238.565 136.021C240.656 136.021 242.425 136.487 243.872 137.42C245.351 138.32 246.461 139.591 247.2 141.231C247.972 142.839 248.358 144.72 248.358 146.875V160.479C248.358 160.8 248.262 161.074 248.069 161.299C247.876 161.492 247.602 161.588 247.249 161.588H244.837C244.515 161.588 244.242 161.492 244.017 161.299C243.824 161.074 243.727 160.8 243.727 160.479V147.116C243.727 144.865 243.18 143.112 242.087 141.858C240.994 140.572 239.385 139.928 237.263 139.928C235.269 139.928 233.661 140.572 232.439 141.858C231.217 143.112 230.606 144.865 230.606 147.116V160.479C230.606 160.8 230.509 161.074 230.316 161.299C230.123 161.492 229.85 161.588 229.496 161.588H227.084Z" fill="#6A8FB3"/>
    <path d="M172.11 161.588C171.756 161.588 171.482 161.492 171.289 161.299C171.096 161.074 171 160.8 171 160.479V128.978C171 128.624 171.096 128.351 171.289 128.158C171.482 127.933 171.756 127.82 172.11 127.82H184.363C186.742 127.82 188.801 128.206 190.537 128.978C192.306 129.75 193.673 130.907 194.638 132.451C195.603 133.963 196.085 135.86 196.085 138.143C196.085 140.427 195.603 142.324 194.638 143.836C193.673 145.347 192.306 146.489 190.537 147.261C188.801 148.033 186.742 148.419 184.363 148.419H175.824V160.479C175.824 160.8 175.711 161.074 175.486 161.299C175.293 161.492 175.02 161.588 174.666 161.588H172.11ZM175.776 144.366H184.121C186.501 144.366 188.286 143.836 189.476 142.775C190.666 141.713 191.261 140.17 191.261 138.143C191.261 136.15 190.682 134.606 189.524 133.512C188.366 132.419 186.566 131.872 184.121 131.872H175.776V144.366Z" fill="#6A8FB3"/>
    <g filter="url(#filter0_d_23_2)">
        <path d="M426.849 116C425.999 116 425.303 115.73 424.761 115.188C424.22 114.647 423.949 113.951 423.949 113.1V58.5802C423.949 57.7295 424.22 57.0335 424.761 56.4922C425.303 55.9509 425.999 55.6802 426.849 55.6802H440.189C441.04 55.6802 441.736 55.9509 442.277 56.4922C442.819 57.0335 443.089 57.7295 443.089 58.5802V62.9882C445.1 60.5909 447.729 58.5802 450.977 56.9562C454.225 55.3322 458.053 54.5202 462.461 54.5202C466.947 54.5202 470.891 55.5255 474.293 57.5362C477.773 59.5469 480.48 62.5242 482.413 66.4682C484.424 70.3349 485.429 75.0909 485.429 80.7362V113.1C485.429 113.951 485.12 114.647 484.501 115.188C483.96 115.73 483.303 116 482.529 116H467.913C467.14 116 466.444 115.73 465.825 115.188C465.284 114.647 465.013 113.951 465.013 113.1V81.4322C465.013 77.7975 464.124 75.0135 462.345 73.0802C460.644 71.0695 458.092 70.0642 454.689 70.0642C451.519 70.0642 448.967 71.0695 447.033 73.0802C445.177 75.0135 444.249 77.7975 444.249 81.4322V113.1C444.249 113.951 443.94 114.647 443.321 115.188C442.78 115.73 442.123 116 441.349 116H426.849Z" fill="#ECECEC"/>
        <path d="M373.624 117.16C369.448 117.16 365.697 116.387 362.372 114.84C359.124 113.216 356.533 111.051 354.6 108.344C352.666 105.638 351.7 102.583 351.7 99.1802C351.7 93.6895 353.942 89.3589 358.428 86.1882C362.913 82.9402 368.868 80.7362 376.292 79.5762L390.792 77.3722V75.7482C390.792 72.9642 390.212 70.8375 389.052 69.3682C387.892 67.8989 385.765 67.1642 382.672 67.1642C380.506 67.1642 378.728 67.5895 377.336 68.4402C376.021 69.2909 374.977 70.4509 374.204 71.9202C373.508 72.9255 372.541 73.4282 371.304 73.4282H358.312C357.461 73.4282 356.804 73.1962 356.34 72.7322C355.876 72.1909 355.682 71.5722 355.76 70.8762C355.76 69.4842 356.262 67.8989 357.268 66.1202C358.35 64.2642 359.974 62.4469 362.14 60.6682C364.305 58.8895 367.089 57.4202 370.492 56.2602C373.894 55.1002 377.993 54.5202 382.788 54.5202C387.814 54.5202 392.106 55.1002 395.664 56.2602C399.221 57.4202 402.082 59.0442 404.248 61.1322C406.49 63.2202 408.153 65.6949 409.236 68.5562C410.318 71.3402 410.86 74.4335 410.86 77.8362V113.1C410.86 113.951 410.55 114.647 409.932 115.188C409.39 115.73 408.733 116 407.96 116H394.504C393.653 116 392.957 115.73 392.416 115.188C391.874 114.647 391.604 113.951 391.604 113.1V109.04C390.598 110.51 389.245 111.863 387.544 113.1C385.842 114.338 383.832 115.304 381.512 116C379.269 116.774 376.64 117.16 373.624 117.16ZM379.076 103.936C381.318 103.936 383.329 103.472 385.108 102.544C386.964 101.539 388.394 100.031 389.4 98.0202C390.482 95.9322 391.024 93.3415 391.024 90.2482V88.6242L381.164 90.3642C377.529 90.9829 374.861 91.9495 373.16 93.2642C371.536 94.5015 370.724 95.9709 370.724 97.6722C370.724 98.9869 371.11 100.108 371.884 101.036C372.657 101.964 373.662 102.699 374.9 103.24C376.137 103.704 377.529 103.936 379.076 103.936Z" fill="#ECECEC"/>
        <path d="M325.349 116C324.499 116 323.803 115.73 323.261 115.188C322.72 114.647 322.449 113.951 322.449 113.1V58.5802C322.449 57.7295 322.72 57.0335 323.261 56.4922C323.803 55.9509 324.499 55.6802 325.349 55.6802H339.037C339.811 55.6802 340.468 55.9509 341.009 56.4922C341.628 57.0335 341.937 57.7295 341.937 58.5802V113.1C341.937 113.951 341.628 114.647 341.009 115.188C340.468 115.73 339.811 116 339.037 116H325.349ZM325.233 46.9802C324.383 46.9802 323.687 46.7095 323.145 46.1682C322.604 45.6269 322.333 44.9309 322.333 44.0802V33.7562C322.333 32.9055 322.604 32.2095 323.145 31.6682C323.687 31.0495 324.383 30.7402 325.233 30.7402H339.037C339.888 30.7402 340.584 31.0495 341.125 31.6682C341.744 32.2095 342.053 32.9055 342.053 33.7562V44.0802C342.053 44.9309 341.744 45.6269 341.125 46.1682C340.584 46.7095 339.888 46.9802 339.037 46.9802H325.233Z" fill="#ECECEC"/>
        <path d="M273.921 116C272.761 116 271.91 115.73 271.369 115.188C270.828 114.57 270.364 113.874 269.977 113.1L248.053 59.2762C247.898 58.9669 247.821 58.6189 247.821 58.2322C247.821 57.5362 248.053 56.9562 248.517 56.4922C249.058 55.9509 249.716 55.6802 250.489 55.6802H263.597C264.602 55.6802 265.376 55.9509 265.917 56.4922C266.458 57.0335 266.806 57.5749 266.961 58.1162L280.069 93.7282L293.293 58.1162C293.448 57.5749 293.796 57.0335 294.337 56.4922C294.878 55.9509 295.652 55.6802 296.657 55.6802H309.765C310.461 55.6802 311.08 55.9509 311.621 56.4922C312.162 56.9562 312.433 57.5362 312.433 58.2322C312.433 58.6189 312.356 58.9669 312.201 59.2762L290.277 113.1C289.968 113.874 289.504 114.57 288.885 115.188C288.344 115.73 287.454 116 286.217 116H273.921Z" fill="#ECECEC"/>
        <path d="M173.476 116C172.857 116 172.277 115.768 171.736 115.304C171.272 114.763 171.04 114.183 171.04 113.564C171.04 113.178 171.079 112.83 171.156 112.52L198.416 38.0482C198.648 37.1975 199.112 36.4629 199.808 35.8442C200.581 35.1482 201.625 34.8002 202.94 34.8002H220.108C221.423 34.8002 222.428 35.1482 223.124 35.8442C223.897 36.4629 224.4 37.1975 224.632 38.0482L251.776 112.52C251.931 112.83 252.008 113.178 252.008 113.564C252.008 114.183 251.737 114.763 251.196 115.304C250.732 115.768 250.152 116 249.456 116H235.188C234.028 116 233.139 115.73 232.52 115.188C231.979 114.57 231.631 114.028 231.476 113.564L226.952 101.732H195.98L191.572 113.564C191.417 114.028 191.069 114.57 190.528 115.188C189.987 115.73 189.059 116 187.744 116H173.476ZM200.736 85.0282H222.312L211.408 54.4042L200.736 85.0282Z" fill="#ECECEC"/>
    </g>
    <path d="M106.704 128.365C110.847 131.427 112.403 132.736 113.513 137.9M112.109 145.602C105.584 152.802 82.194 160.621 50.3374 151.589M35.403 145.371C24.0707 140.491 12.5278 123.167 43.6115 116.745" stroke="#6A8FB3" stroke-width="3.02106" stroke-linecap="round" stroke-linejoin="round"/>
    <path d="M48.2587 102.189C39.0529 102.648 31.0815 104.98 21.682 108.486M15.5559 111.905C12.3251 114.351 8.41218 116.794 5.87397 122.192M83.2835 169.148C99.1411 169.203 114.99 166.801 127.75 158.981M135.904 150.655C138.949 143.785 140.956 132.98 124.029 120.143" stroke="#6A8FB3" stroke-width="3.03053" stroke-linecap="round" stroke-linejoin="round"/>
    <g filter="url(#filter1_d_23_2)">
        <path d="M138.864 33.8713C138.727 33.5763 138.355 33.4896 138.081 33.6649C133.814 36.3982 119.447 39.7692 107.999 41.0335C107.468 41.0922 107.39 41.769 107.908 41.9008C110.637 42.5951 112.641 42.4364 115.494 44.5132C115.843 44.768 115.703 45.3 115.274 45.362C108.341 46.3646 101.051 46.0822 92.0739 55.0524C91.748 55.378 92.0042 55.9246 92.4641 55.8974C99.7487 55.4673 103.083 55.5519 105.836 59.4981C106.073 59.8382 105.796 60.2842 105.383 60.2451C94.4436 59.2078 89.8213 57.5658 81.813 67.1396C81.521 67.4888 81.8127 68.0053 82.2637 67.943C89.1409 66.9927 91.6411 65.9674 96.6288 70.3403C96.9816 70.6497 96.7376 71.222 96.2685 71.2109C76.9169 70.7505 67.1842 79.8515 56.5317 97.5918C56.2896 97.995 56.6766 98.4788 57.1195 98.3208C63.4969 96.0456 69.534 93.1764 73.9774 96.8434C74.2631 97.0792 74.161 97.529 73.8152 97.6618C56.5984 104.276 54.1404 112.583 50.0854 119.91C45.9721 127.342 42.5748 134.837 41.483 139.07C41.2646 139.917 40.903 140.751 42.1918 140.864C43.9102 141.014 52.9226 141.392 57.4532 141.039C63.0373 140.603 81.6431 139.547 88.862 119.435C88.996 119.061 89.4909 118.959 89.7326 119.274C91.4811 121.55 91.6854 123.19 90.4931 129.139C90.4201 129.504 90.7457 129.824 91.1023 129.719C101.264 126.727 112.77 112.379 110.58 99.7917C110.508 99.3764 110.933 99.0392 111.303 99.2402C116.915 102.285 115.38 106.776 113.33 112.662C113.187 113.074 113.586 113.445 113.963 113.224C122.748 108.072 130.131 83.5831 126.335 73.1931C126.177 72.7619 126.602 72.3151 127.021 72.5037C134.597 75.9174 132.315 82.9079 130.647 91.532C130.551 92.0238 131.125 92.3153 131.443 91.9281C140.743 80.6008 146.957 51.3457 138.864 33.8713Z" fill="#ECECEC"/>
        <path d="M151.163 12.8406C151.697 10.7728 150.556 9.22101 149.808 8.59929C149.718 8.52498 149.613 8.47359 149.499 8.44675C148.662 8.24813 146.998 8.14672 145.866 9.09616C144.652 10.1149 144.105 13.1605 143.983 14.556C142.164 26.771 126.867 49.4623 119.446 59.281C102.024 85.802 76.8713 109.866 65.02 119.916C64.901 120.016 64.9224 120.198 65.0554 120.28V120.28C65.1395 120.332 65.25 120.321 65.3255 120.258C142.995 54.857 150.461 15.5636 151.163 12.8406Z" fill="#787878"/>
    </g>
    <defs>
        <filter id="filter0_d_23_2" x="167.04" y="26.7402" width="322.389" height="94.42" filterUnits="userSpaceOnUse" color-interpolation-filters="sRGB">
            <feFlood flood-opacity="0" result="BackgroundImageFix"/>
            <feColorMatrix in="SourceAlpha" type="matrix" values="0 0 0 0 0 0 0 0 0 0 0 0 0 0 0 0 0 0 127 0" result="hardAlpha"/>
            <feOffset/>
            <feGaussianBlur stdDeviation="2"/>
            <feComposite in2="hardAlpha" operator="out"/>
            <feColorMatrix type="matrix" values="0 0 0 0 0 0 0 0 0 0 0 0 0 0 0 0 0 0 1 0"/>
            <feBlend mode="normal" in2="BackgroundImageFix" result="effect1_dropShadow_23_2"/>
            <feBlend mode="normal" in="SourceGraphic" in2="effect1_dropShadow_23_2" result="shape"/>
        </filter>
        <filter id="filter1_d_23_2" x="37.2643" y="4.31448" width="118.036" height="140.871" filterUnits="userSpaceOnUse" color-interpolation-filters="sRGB">
            <feFlood flood-opacity="0" result="BackgroundImageFix"/>
            <feColorMatrix in="SourceAlpha" type="matrix" values="0 0 0 0 0 0 0 0 0 0 0 0 0 0 0 0 0 0 127 0" result="hardAlpha"/>
            <feOffset/>
            <feGaussianBlur stdDeviation="2"/>
            <feComposite in2="hardAlpha" operator="out"/>
            <feColorMatrix type="matrix" values="0 0 0 0 0 0 0 0 0 0 0 0 0 0 0 0 0 0 1 0"/>
            <feBlend mode="normal" in2="BackgroundImageFix" result="effect1_dropShadow_23_2"/>
            <feBlend mode="normal" in="SourceGraphic" in2="effect1_dropShadow_23_2" result="shape"/>
        </filter>
    </defs>
</svg>
