<svg width="497" height="182" viewBox="0 0 497 182" fill="none" xmlns="http://www.w3.org/2000/svg">
    <path d="M482.067 162.07C480.266 162.07 478.722 161.845 477.436 161.395C476.149 160.944 475.104 160.398 474.3 159.754C473.496 159.111 472.885 158.468 472.467 157.825C472.081 157.182 471.872 156.667 471.84 156.281C471.808 155.927 471.92 155.654 472.177 155.461C472.435 155.268 472.692 155.172 472.949 155.172H475.072C475.265 155.172 475.409 155.204 475.506 155.268C475.635 155.3 475.795 155.429 475.988 155.654C476.406 156.104 476.873 156.554 477.387 157.005C477.902 157.455 478.529 157.825 479.269 158.114C480.041 158.404 480.989 158.548 482.115 158.548C483.755 158.548 485.106 158.243 486.167 157.632C487.228 156.989 487.759 156.056 487.759 154.834C487.759 154.03 487.534 153.387 487.084 152.904C486.666 152.422 485.894 151.988 484.768 151.602C483.675 151.216 482.163 150.814 480.234 150.396C478.304 149.945 476.776 149.399 475.651 148.756C474.525 148.08 473.721 147.292 473.239 146.392C472.756 145.459 472.515 144.414 472.515 143.256C472.515 142.066 472.869 140.925 473.576 139.831C474.284 138.706 475.313 137.789 476.664 137.081C478.047 136.374 479.767 136.02 481.825 136.02C483.498 136.02 484.929 136.229 486.119 136.647C487.309 137.065 488.29 137.596 489.061 138.239C489.833 138.85 490.412 139.461 490.798 140.072C491.184 140.683 491.393 141.198 491.425 141.616C491.457 141.938 491.361 142.211 491.136 142.436C490.911 142.629 490.653 142.726 490.364 142.726H488.338C488.113 142.726 487.92 142.677 487.759 142.581C487.63 142.484 487.502 142.372 487.373 142.243C487.051 141.825 486.666 141.407 486.215 140.989C485.797 140.571 485.234 140.233 484.527 139.976C483.852 139.686 482.951 139.542 481.825 139.542C480.217 139.542 479.011 139.879 478.207 140.555C477.403 141.23 477.001 142.082 477.001 143.111C477.001 143.723 477.178 144.269 477.532 144.752C477.886 145.234 478.561 145.668 479.558 146.054C480.555 146.44 482.034 146.858 483.996 147.308C486.119 147.726 487.791 148.289 489.013 148.997C490.235 149.704 491.104 150.524 491.618 151.457C492.133 152.39 492.39 153.467 492.39 154.689C492.39 156.04 491.988 157.278 491.184 158.404C490.412 159.529 489.254 160.43 487.711 161.105C486.199 161.748 484.318 162.07 482.067 162.07Z" fill="#6A8FB3"/>
    <path d="M432.294 162.07C430.011 162.07 428.033 161.636 426.361 160.767C424.721 159.867 423.45 158.597 422.55 156.956C421.649 155.284 421.167 153.29 421.103 150.975C421.071 150.492 421.054 149.849 421.054 149.045C421.054 148.241 421.071 147.598 421.103 147.115C421.167 144.8 421.649 142.822 422.55 141.182C423.45 139.51 424.721 138.239 426.361 137.371C428.033 136.47 430.011 136.02 432.294 136.02C434.16 136.02 435.752 136.277 437.07 136.792C438.421 137.307 439.53 137.966 440.399 138.77C441.267 139.574 441.91 140.442 442.328 141.375C442.779 142.307 443.02 143.192 443.052 144.028C443.084 144.35 442.988 144.607 442.763 144.8C442.537 144.993 442.264 145.089 441.942 145.089H439.627C439.305 145.089 439.064 145.025 438.903 144.896C438.743 144.736 438.582 144.478 438.421 144.125C437.842 142.549 437.054 141.439 436.057 140.796C435.06 140.153 433.822 139.831 432.343 139.831C430.413 139.831 428.837 140.426 427.615 141.616C426.425 142.806 425.782 144.719 425.686 147.357C425.653 148.514 425.653 149.64 425.686 150.733C425.782 153.403 426.425 155.332 427.615 156.522C428.837 157.68 430.413 158.259 432.343 158.259C433.822 158.259 435.06 157.937 436.057 157.294C437.054 156.651 437.842 155.541 438.421 153.966C438.582 153.612 438.743 153.371 438.903 153.242C439.064 153.081 439.305 153.001 439.627 153.001H441.942C442.264 153.001 442.537 153.097 442.763 153.29C442.988 153.483 443.084 153.74 443.052 154.062C443.02 154.737 442.875 155.429 442.618 156.136C442.361 156.844 441.942 157.567 441.364 158.307C440.817 159.015 440.125 159.658 439.289 160.237C438.453 160.783 437.44 161.234 436.25 161.587C435.092 161.909 433.774 162.07 432.294 162.07Z" fill="#6A8FB3"/>
    <path d="M386.894 161.587C386.572 161.587 386.299 161.491 386.073 161.298C385.881 161.073 385.784 160.8 385.784 160.478V137.612C385.784 137.29 385.881 137.033 386.073 136.84C386.299 136.615 386.572 136.503 386.894 136.503H389.209C389.531 136.503 389.788 136.615 389.981 136.84C390.174 137.033 390.27 137.29 390.27 137.612V160.478C390.27 160.8 390.174 161.073 389.981 161.298C389.788 161.491 389.531 161.587 389.209 161.587H386.894ZM386.508 131.823C386.186 131.823 385.913 131.727 385.688 131.534C385.495 131.309 385.398 131.035 385.398 130.714V128.109C385.398 127.787 385.495 127.53 385.688 127.337C385.913 127.112 386.186 126.999 386.508 126.999H389.547C389.868 126.999 390.126 127.112 390.319 127.337C390.544 127.53 390.656 127.787 390.656 128.109V130.714C390.656 131.035 390.544 131.309 390.319 131.534C390.126 131.727 389.868 131.823 389.547 131.823H386.508Z" fill="#6A8FB3"/>
    <path d="M345.274 162.07C343.473 162.07 341.929 161.845 340.642 161.395C339.356 160.944 338.311 160.398 337.507 159.754C336.703 159.111 336.092 158.468 335.674 157.825C335.288 157.182 335.079 156.667 335.047 156.281C335.014 155.927 335.127 155.654 335.384 155.461C335.642 155.268 335.899 155.172 336.156 155.172H338.279C338.472 155.172 338.616 155.204 338.713 155.268C338.842 155.3 339.002 155.429 339.195 155.654C339.613 156.104 340.08 156.554 340.594 157.005C341.109 157.455 341.736 157.825 342.476 158.114C343.247 158.404 344.196 158.548 345.322 158.548C346.962 158.548 348.313 158.243 349.374 157.632C350.435 156.989 350.966 156.056 350.966 154.834C350.966 154.03 350.741 153.387 350.291 152.904C349.872 152.422 349.101 151.988 347.975 151.602C346.882 151.216 345.37 150.814 343.44 150.396C341.511 149.945 339.983 149.399 338.858 148.756C337.732 148.08 336.928 147.292 336.446 146.392C335.963 145.459 335.722 144.414 335.722 143.256C335.722 142.066 336.076 140.925 336.783 139.831C337.491 138.706 338.52 137.789 339.871 137.081C341.254 136.374 342.974 136.02 345.032 136.02C346.705 136.02 348.136 136.229 349.326 136.647C350.516 137.065 351.497 137.596 352.268 138.239C353.04 138.85 353.619 139.461 354.005 140.072C354.391 140.683 354.6 141.198 354.632 141.616C354.664 141.938 354.568 142.211 354.343 142.436C354.118 142.629 353.86 142.726 353.571 142.726H351.545C351.32 142.726 351.127 142.677 350.966 142.581C350.837 142.484 350.709 142.372 350.58 142.243C350.258 141.825 349.872 141.407 349.422 140.989C349.004 140.571 348.441 140.233 347.734 139.976C347.058 139.686 346.158 139.542 345.032 139.542C343.424 139.542 342.218 139.879 341.414 140.555C340.61 141.23 340.208 142.082 340.208 143.111C340.208 143.723 340.385 144.269 340.739 144.752C341.093 145.234 341.768 145.668 342.765 146.054C343.762 146.44 345.241 146.858 347.203 147.308C349.326 147.726 350.998 148.289 352.22 148.997C353.442 149.704 354.311 150.524 354.825 151.457C355.34 152.39 355.597 153.467 355.597 154.689C355.597 156.04 355.195 157.278 354.391 158.404C353.619 159.529 352.461 160.43 350.918 161.105C349.406 161.748 347.525 162.07 345.274 162.07Z" fill="#6A8FB3"/>
    <path d="M290.562 170.753C290.304 170.753 290.079 170.657 289.886 170.464C289.693 170.271 289.597 170.046 289.597 169.788C289.597 169.66 289.613 169.531 289.645 169.402C289.677 169.274 289.741 169.113 289.838 168.92L293.552 160.092L284.339 138.336C284.178 137.95 284.097 137.676 284.097 137.516C284.097 137.226 284.194 136.985 284.387 136.792C284.58 136.599 284.821 136.503 285.11 136.503H287.474C287.796 136.503 288.053 136.583 288.246 136.744C288.439 136.905 288.568 137.097 288.632 137.323L295.964 154.882L303.49 137.323C303.586 137.097 303.715 136.905 303.876 136.744C304.069 136.583 304.342 136.503 304.696 136.503H306.963C307.253 136.503 307.494 136.599 307.687 136.792C307.88 136.985 307.976 137.21 307.976 137.467C307.976 137.628 307.896 137.918 307.735 138.336L294.035 169.933C293.938 170.158 293.794 170.351 293.601 170.512C293.44 170.673 293.183 170.753 292.829 170.753H290.562Z" fill="#6A8FB3"/>
    <path d="M234.084 161.587C233.763 161.587 233.489 161.491 233.264 161.298C233.071 161.073 232.975 160.8 232.975 160.478V128.446C232.975 128.125 233.071 127.868 233.264 127.675C233.489 127.449 233.763 127.337 234.084 127.337H236.496C236.85 127.337 237.123 127.449 237.316 127.675C237.509 127.868 237.606 128.125 237.606 128.446V139.686C238.474 138.593 239.535 137.709 240.79 137.033C242.044 136.358 243.636 136.02 245.566 136.02C247.656 136.02 249.425 136.486 250.872 137.419C252.351 138.32 253.461 139.59 254.201 141.23C254.972 142.838 255.358 144.719 255.358 146.874V160.478C255.358 160.8 255.262 161.073 255.069 161.298C254.876 161.491 254.603 161.587 254.249 161.587H251.837C251.515 161.587 251.242 161.491 251.017 161.298C250.824 161.073 250.727 160.8 250.727 160.478V147.115C250.727 144.864 250.18 143.111 249.087 141.857C247.994 140.571 246.386 139.928 244.263 139.928C242.269 139.928 240.661 140.571 239.439 141.857C238.217 143.111 237.606 144.864 237.606 147.115V160.478C237.606 160.8 237.509 161.073 237.316 161.298C237.123 161.491 236.85 161.587 236.496 161.587H234.084Z" fill="#6A8FB3"/>
    <path d="M179.11 161.587C178.756 161.587 178.482 161.491 178.29 161.298C178.097 161.073 178 160.8 178 160.478V128.977C178 128.623 178.097 128.35 178.29 128.157C178.482 127.932 178.756 127.819 179.11 127.819H191.363C193.742 127.819 195.801 128.205 197.537 128.977C199.306 129.749 200.673 130.907 201.638 132.45C202.603 133.962 203.085 135.859 203.085 138.143C203.085 140.426 202.603 142.324 201.638 143.835C200.673 145.347 199.306 146.488 197.537 147.26C195.801 148.032 193.742 148.418 191.363 148.418H182.824V160.478C182.824 160.8 182.712 161.073 182.486 161.298C182.293 161.491 182.02 161.587 181.666 161.587H179.11ZM182.776 144.366H191.121C193.501 144.366 195.286 143.835 196.476 142.774C197.666 141.712 198.261 140.169 198.261 138.143C198.261 136.149 197.682 134.605 196.524 133.512C195.367 132.418 193.566 131.871 191.121 131.871H182.776V144.366Z" fill="#6A8FB3"/>
    <g filter="url(#filter0_d_23_2)">
        <path d="M433.849 115.999C432.999 115.999 432.303 115.729 431.761 115.187C431.22 114.646 430.949 113.95 430.949 113.099V58.5794C430.949 57.7287 431.22 57.0327 431.761 56.4914C432.303 55.9501 432.999 55.6794 433.849 55.6794H447.189C448.04 55.6794 448.736 55.9501 449.277 56.4914C449.819 57.0327 450.089 57.7287 450.089 58.5794V62.9874C452.1 60.5901 454.729 58.5794 457.977 56.9554C461.225 55.3314 465.053 54.5194 469.461 54.5194C473.947 54.5194 477.891 55.5247 481.293 57.5354C484.773 59.5461 487.48 62.5234 489.413 66.4674C491.424 70.3341 492.429 75.0901 492.429 80.7354V113.099C492.429 113.95 492.12 114.646 491.501 115.187C490.96 115.729 490.303 115.999 489.529 115.999H474.913C474.14 115.999 473.444 115.729 472.825 115.187C472.284 114.646 472.013 113.95 472.013 113.099V81.4314C472.013 77.7967 471.124 75.0127 469.345 73.0794C467.644 71.0687 465.092 70.0634 461.689 70.0634C458.519 70.0634 455.967 71.0687 454.033 73.0794C452.177 75.0127 451.249 77.7967 451.249 81.4314V113.099C451.249 113.95 450.94 114.646 450.321 115.187C449.78 115.729 449.123 115.999 448.349 115.999H433.849Z" fill="#ECECEC"/>
        <path d="M380.624 117.159C376.448 117.159 372.697 116.386 369.372 114.839C366.124 113.215 363.533 111.05 361.6 108.343C359.666 105.637 358.7 102.582 358.7 99.1794C358.7 93.6887 360.942 89.3581 365.428 86.1874C369.913 82.9394 375.868 80.7354 383.292 79.5754L397.792 77.3714V75.7474C397.792 72.9634 397.212 70.8367 396.052 69.3674C394.892 67.8981 392.765 67.1634 389.672 67.1634C387.506 67.1634 385.728 67.5887 384.336 68.4394C383.021 69.2901 381.977 70.4501 381.204 71.9194C380.508 72.9247 379.541 73.4274 378.304 73.4274H365.312C364.461 73.4274 363.804 73.1954 363.34 72.7314C362.876 72.1901 362.682 71.5714 362.76 70.8754C362.76 69.4834 363.262 67.8981 364.268 66.1194C365.35 64.2634 366.974 62.4461 369.14 60.6674C371.305 58.8887 374.089 57.4194 377.492 56.2594C380.894 55.0994 384.993 54.5194 389.788 54.5194C394.814 54.5194 399.106 55.0994 402.664 56.2594C406.221 57.4194 409.082 59.0434 411.248 61.1314C413.49 63.2194 415.153 65.6941 416.236 68.5554C417.318 71.3394 417.86 74.4327 417.86 77.8354V113.099C417.86 113.95 417.55 114.646 416.932 115.187C416.39 115.729 415.733 115.999 414.96 115.999H401.504C400.653 115.999 399.957 115.729 399.416 115.187C398.874 114.646 398.604 113.95 398.604 113.099V109.039C397.598 110.509 396.245 111.862 394.544 113.099C392.842 114.337 390.832 115.303 388.512 115.999C386.269 116.773 383.64 117.159 380.624 117.159ZM386.076 103.935C388.318 103.935 390.329 103.471 392.108 102.543C393.964 101.538 395.394 100.03 396.4 98.0194C397.482 95.9314 398.024 93.3407 398.024 90.2474V88.6234L388.164 90.3634C384.529 90.9821 381.861 91.9487 380.16 93.2634C378.536 94.5007 377.724 95.9701 377.724 97.6714C377.724 98.9861 378.11 100.107 378.884 101.035C379.657 101.963 380.662 102.698 381.9 103.239C383.137 103.703 384.529 103.935 386.076 103.935Z" fill="#ECECEC"/>
        <path d="M332.35 115.999C331.499 115.999 330.803 115.729 330.262 115.187C329.72 114.646 329.449 113.95 329.449 113.099V58.5794C329.449 57.7287 329.72 57.0327 330.262 56.4914C330.803 55.9501 331.499 55.6794 332.35 55.6794H346.038C346.811 55.6794 347.468 55.9501 348.01 56.4914C348.628 57.0327 348.938 57.7287 348.938 58.5794V113.099C348.938 113.95 348.628 114.646 348.01 115.187C347.468 115.729 346.811 115.999 346.038 115.999H332.35ZM332.234 46.9794C331.383 46.9794 330.687 46.7087 330.145 46.1674C329.604 45.6261 329.333 44.9301 329.333 44.0794V33.7554C329.333 32.9047 329.604 32.2087 330.145 31.6674C330.687 31.0487 331.383 30.7394 332.234 30.7394H346.038C346.888 30.7394 347.584 31.0487 348.126 31.6674C348.744 32.2087 349.053 32.9047 349.053 33.7554V44.0794C349.053 44.9301 348.744 45.6261 348.126 46.1674C347.584 46.7087 346.888 46.9794 346.038 46.9794H332.234Z" fill="#ECECEC"/>
        <path d="M280.921 115.999C279.761 115.999 278.911 115.729 278.369 115.187C277.828 114.569 277.364 113.873 276.977 113.099L255.053 59.2754C254.899 58.9661 254.821 58.6181 254.821 58.2314C254.821 57.5354 255.053 56.9554 255.517 56.4914C256.059 55.9501 256.716 55.6794 257.489 55.6794H270.597C271.603 55.6794 272.376 55.9501 272.917 56.4914C273.459 57.0327 273.807 57.5741 273.961 58.1154L287.069 93.7274L300.293 58.1154C300.448 57.5741 300.796 57.0327 301.337 56.4914C301.879 55.9501 302.652 55.6794 303.657 55.6794H316.765C317.461 55.6794 318.08 55.9501 318.621 56.4914C319.163 56.9554 319.433 57.5354 319.433 58.2314C319.433 58.6181 319.356 58.9661 319.201 59.2754L297.277 113.099C296.968 113.873 296.504 114.569 295.885 115.187C295.344 115.729 294.455 115.999 293.217 115.999H280.921Z" fill="#ECECEC"/>
        <path d="M180.476 115.999C179.857 115.999 179.277 115.767 178.736 115.303C178.272 114.762 178.04 114.182 178.04 113.563C178.04 113.177 178.079 112.829 178.156 112.519L205.416 38.0474C205.648 37.1967 206.112 36.4621 206.808 35.8434C207.581 35.1474 208.625 34.7994 209.94 34.7994H227.108C228.423 34.7994 229.428 35.1474 230.124 35.8434C230.897 36.4621 231.4 37.1967 231.632 38.0474L258.776 112.519C258.931 112.829 259.008 113.177 259.008 113.563C259.008 114.182 258.737 114.762 258.196 115.303C257.732 115.767 257.152 115.999 256.456 115.999H242.188C241.028 115.999 240.139 115.729 239.52 115.187C238.979 114.569 238.631 114.027 238.476 113.563L233.952 101.731H202.98L198.572 113.563C198.417 114.027 198.069 114.569 197.528 115.187C196.987 115.729 196.059 115.999 194.744 115.999H180.476ZM207.736 85.0274H229.312L218.408 54.4034L207.736 85.0274Z" fill="#ECECEC"/>
    </g>
    <path d="M108 128.5C111 131 114 133.5 115 138M113.213 145.323C107 155 76.5 159 51.5598 151.298M36.6541 145.092C24 139 14.5 122.5 44.8468 116.521" stroke="#6A8FB3" stroke-width="3.5" stroke-linecap="round" stroke-linejoin="round"/>
    <path d="M48.8123 103.631C40.3152 104.179 29.3293 106.74 21.849 110.282M15.3686 113.818C12.1577 116.278 8.61223 118.926 6.10903 124.327M83.6304 170.762C99.4576 170.728 115.262 168.242 127.954 160.366M136.046 152.011C140.548 145.62 140.978 133.117 123.912 121.212" stroke="#6A8FB3" stroke-width="3.5" stroke-linecap="round" stroke-linejoin="round"/>
    <g filter="url(#filter1_d_23_2)">
        <path d="M139.916 33.8063C139.78 33.5119 139.409 33.4254 139.135 33.6003C134.876 36.3283 120.537 39.6929 109.111 40.9548C108.581 41.0133 108.503 41.6889 109.02 41.8204C111.744 42.5134 113.744 42.355 116.591 44.4278C116.94 44.6821 116.8 45.2131 116.372 45.2749C109.452 46.2757 102.177 45.9938 93.2163 54.9467C92.891 55.2717 93.1468 55.8172 93.6057 55.7901C100.876 55.3609 104.204 55.4453 106.952 59.3839C107.189 59.7234 106.912 60.1685 106.5 60.1294C95.5814 59.0942 90.968 57.4554 82.9752 67.0107C82.6837 67.3592 82.9748 67.8747 83.4249 67.8125C90.2889 66.8641 92.7843 65.8408 97.7625 70.2053C98.1146 70.514 97.8711 71.0853 97.4029 71.0742C78.0885 70.6147 68.3744 79.6982 57.7423 97.4045C57.5007 97.8068 57.887 98.2898 58.329 98.132C64.6942 95.8612 70.7197 92.9975 75.1546 96.6575C75.4397 96.8928 75.3378 97.3418 74.9927 97.4743C57.8089 104.075 55.3556 112.367 51.3084 119.68C47.203 127.098 43.8123 134.578 42.7225 138.803C42.5046 139.648 42.1437 140.481 43.43 140.593C45.1451 140.743 54.1402 141.121 58.6621 140.768C64.2355 140.333 82.8055 139.279 90.0106 119.205C90.1443 118.832 90.6383 118.731 90.8795 119.045C92.6247 121.317 92.8286 122.954 91.6386 128.891C91.5657 129.255 91.8906 129.575 92.2466 129.47C102.389 126.483 113.872 112.163 111.687 99.6001C111.615 99.1856 112.039 98.8491 112.409 99.0497C118.01 102.089 116.478 106.571 114.432 112.446C114.288 112.857 114.687 113.227 115.063 113.006C123.832 107.864 131.2 83.4226 127.412 73.0526C127.254 72.6222 127.678 72.1763 128.096 72.3646C135.658 75.7717 133.38 82.7488 131.715 91.3563C131.62 91.8472 132.192 92.138 132.509 91.7517C141.792 80.4461 147.994 51.2471 139.916 33.8063Z" fill="#ECECEC"/>
        <path d="M152.192 12.816C152.725 10.7522 151.587 9.20339 150.839 8.58286C150.75 8.5087 150.644 8.4574 150.531 8.43061C149.695 8.23238 148.035 8.13116 146.905 9.07877C145.694 10.0955 145.147 13.1353 145.025 14.5281C143.21 26.7197 127.943 49.3674 120.536 59.1673C103.148 85.6373 78.0428 109.655 66.2143 119.685C66.0955 119.786 66.1169 119.967 66.2496 120.049C66.3336 120.101 66.4439 120.09 66.5192 120.027C144.04 54.7517 151.491 15.5338 152.192 12.816Z" fill="#787878"/>
    </g>
    <defs>
        <filter id="filter0_d_23_2" x="174.04" y="26.7394" width="322.389" height="94.42" filterUnits="userSpaceOnUse" color-interpolation-filters="sRGB">
            <feFlood flood-opacity="0" result="BackgroundImageFix"/>
            <feColorMatrix in="SourceAlpha" type="matrix" values="0 0 0 0 0 0 0 0 0 0 0 0 0 0 0 0 0 0 127 0" result="hardAlpha"/>
            <feOffset/>
            <feGaussianBlur stdDeviation="2"/>
            <feComposite in2="hardAlpha" operator="out"/>
            <feColorMatrix type="matrix" values="0 0 0 0 0 0 0 0 0 0 0 0 0 0 0 0 0 0 1 0"/>
            <feBlend mode="normal" in2="BackgroundImageFix" result="effect1_dropShadow_23_2"/>
            <feBlend mode="normal" in="SourceGraphic" in2="effect1_dropShadow_23_2" result="shape"/>
        </filter>
        <filter id="filter1_d_23_2" x="38.512" y="4.30629" width="117.81" height="140.6" filterUnits="userSpaceOnUse" color-interpolation-filters="sRGB">
            <feFlood flood-opacity="0" result="BackgroundImageFix"/>
            <feColorMatrix in="SourceAlpha" type="matrix" values="0 0 0 0 0 0 0 0 0 0 0 0 0 0 0 0 0 0 127 0" result="hardAlpha"/>
            <feOffset/>
            <feGaussianBlur stdDeviation="1.99616"/>
            <feComposite in2="hardAlpha" operator="out"/>
            <feColorMatrix type="matrix" values="0 0 0 0 0 0 0 0 0 0 0 0 0 0 0 0 0 0 1 0"/>
            <feBlend mode="normal" in2="BackgroundImageFix" result="effect1_dropShadow_23_2"/>
            <feBlend mode="normal" in="SourceGraphic" in2="effect1_dropShadow_23_2" result="shape"/>
        </filter>
    </defs>
</svg>
